<svg width="455.73" height="455.73" xmlns="http://www.w3.org/2000/svg" xmlns:svg="http://www.w3.org/2000/svg">
 <g>
  <title>Layer 1</title>
  <rect id="svg_17" height="448.999999" width="449.000001" y="4.600005" x="4.000004" stroke-linecap="null" stroke-linejoin="null" stroke-dasharray="null" stroke-width="null" fill="#ffffff"/>
  <path id="svg_1" fill="#ff0000" d="m227.86,182.55c-24.98,0 -45.32,20.33 -45.32,45.31c0,24.99 20.34,45.33 45.32,45.33c24.99,0 45.32,-20.34 45.32,-45.33c0,-24.98 -20.33,-45.31 -45.32,-45.31zm0,0c-24.98,0 -45.32,20.33 -45.32,45.31c0,24.99 20.34,45.33 45.32,45.33c24.99,0 45.32,-20.34 45.32,-45.33c0,-24.98 -20.33,-45.31 -45.32,-45.31zm75.5,-73.89l-150.99,0c-24.1,0 -43.71,19.61 -43.71,43.71l0,150.99c0,24.1 19.61,43.71 43.71,43.71l150.99,0c24.1,0 43.71,-19.61 43.71,-43.71l0,-150.99c0,-24.1 -19.61,-43.71 -43.71,-43.71zm-75.5,197.69c-43.27,0 -78.48,-35.21 -78.48,-78.49c0,-43.27 35.21,-78.48 78.48,-78.48c43.28,0 78.49,35.21 78.49,78.48c0,43.28 -35.21,78.49 -78.49,78.49zm81.01,-140.74c-10.24,0 -18.57,-8.33 -18.57,-18.57s8.33,-18.57 18.57,-18.57s18.57,8.33 18.57,18.57s-8.33,18.57 -18.57,18.57zm-81.01,16.94c-24.98,0 -45.32,20.33 -45.32,45.31c0,24.99 20.34,45.33 45.32,45.33c24.99,0 45.32,-20.34 45.32,-45.33c0,-24.98 -20.33,-45.31 -45.32,-45.31zm75.5,-73.89l-150.99,0c-24.1,0 -43.71,19.61 -43.71,43.71l0,150.99c0,24.1 19.61,43.71 43.71,43.71l150.99,0c24.1,0 43.71,-19.61 43.71,-43.71l0,-150.99c0,-24.1 -19.61,-43.71 -43.71,-43.71zm-75.5,197.69c-43.27,0 -78.48,-35.21 -78.48,-78.49c0,-43.27 35.21,-78.48 78.48,-78.48c43.28,0 78.49,35.21 78.49,78.48c0,43.28 -35.21,78.49 -78.49,78.49zm81.01,-140.74c-10.24,0 -18.57,-8.33 -18.57,-18.57s8.33,-18.57 18.57,-18.57s18.57,8.33 18.57,18.57s-8.33,18.57 -18.57,18.57zm-81.01,16.94c-24.98,0 -45.32,20.33 -45.32,45.31c0,24.99 20.34,45.33 45.32,45.33c24.99,0 45.32,-20.34 45.32,-45.33c0,-24.98 -20.33,-45.31 -45.32,-45.31zm-227.86,-182.55l0,455.73l455.73,0l0,-455.73l-455.73,0zm380.23,303.36c0,42.39 -34.48,76.87 -76.87,76.87l-150.99,0c-42.39,0 -76.87,-34.48 -76.87,-76.87l0,-150.99c0,-42.39 34.48,-76.87 76.87,-76.87l150.99,0c42.39,0 76.87,34.48 76.87,76.87l0,150.99zm-76.87,-194.7l-150.99,0c-24.1,0 -43.71,19.61 -43.71,43.71l0,150.99c0,24.1 19.61,43.71 43.71,43.71l150.99,0c24.1,0 43.71,-19.61 43.71,-43.71l0,-150.99c0,-24.1 -19.61,-43.71 -43.71,-43.71zm-75.5,197.69c-43.27,0 -78.48,-35.21 -78.48,-78.49c0,-43.27 35.21,-78.48 78.48,-78.48c43.28,0 78.49,35.21 78.49,78.48c0,43.28 -35.21,78.49 -78.49,78.49zm81.01,-140.74c-10.24,0 -18.57,-8.33 -18.57,-18.57s8.33,-18.57 18.57,-18.57s18.57,8.33 18.57,18.57s-8.33,18.57 -18.57,18.57zm-81.01,16.94c-24.98,0 -45.32,20.33 -45.32,45.31c0,24.99 20.34,45.33 45.32,45.33c24.99,0 45.32,-20.34 45.32,-45.33c0,-24.98 -20.33,-45.31 -45.32,-45.31zm0,0c-24.98,0 -45.32,20.33 -45.32,45.31c0,24.99 20.34,45.33 45.32,45.33c24.99,0 45.32,-20.34 45.32,-45.33c0,-24.98 -20.33,-45.31 -45.32,-45.31zm0,0c-24.98,0 -45.32,20.33 -45.32,45.31c0,24.99 20.34,45.33 45.32,45.33c24.99,0 45.32,-20.34 45.32,-45.33c0,-24.98 -20.33,-45.31 -45.32,-45.31zm75.5,-73.89l-150.99,0c-24.1,0 -43.71,19.61 -43.71,43.71l0,150.99c0,24.1 19.61,43.71 43.71,43.71l150.99,0c24.1,0 43.71,-19.61 43.71,-43.71l0,-150.99c0,-24.1 -19.61,-43.71 -43.71,-43.71zm-75.5,197.69c-43.27,0 -78.48,-35.21 -78.48,-78.49c0,-43.27 35.21,-78.48 78.48,-78.48c43.28,0 78.49,35.21 78.49,78.48c0,43.28 -35.21,78.49 -78.49,78.49zm81.01,-140.74c-10.24,0 -18.57,-8.33 -18.57,-18.57s8.33,-18.57 18.57,-18.57s18.57,8.33 18.57,18.57s-8.33,18.57 -18.57,18.57zm-81.01,16.94c-24.98,0 -45.32,20.33 -45.32,45.31c0,24.99 20.34,45.33 45.32,45.33c24.99,0 45.32,-20.34 45.32,-45.33c0,-24.98 -20.33,-45.31 -45.32,-45.31zm0,0c-24.98,0 -45.32,20.33 -45.32,45.31c0,24.99 20.34,45.33 45.32,45.33c24.99,0 45.32,-20.34 45.32,-45.33c0,-24.98 -20.33,-45.31 -45.32,-45.31zm0,0c-24.98,0 -45.32,20.33 -45.32,45.31c0,24.99 20.34,45.33 45.32,45.33c24.99,0 45.32,-20.34 45.32,-45.33c0,-24.98 -20.33,-45.31 -45.32,-45.31zm75.5,-73.89l-150.99,0c-24.1,0 -43.71,19.61 -43.71,43.71l0,150.99c0,24.1 19.61,43.71 43.71,43.71l150.99,0c24.1,0 43.71,-19.61 43.71,-43.71l0,-150.99c0,-24.1 -19.61,-43.71 -43.71,-43.71zm-75.5,197.69c-43.27,0 -78.48,-35.21 -78.48,-78.49c0,-43.27 35.21,-78.48 78.48,-78.48c43.28,0 78.49,35.21 78.49,78.48c0,43.28 -35.21,78.49 -78.49,78.49zm81.01,-140.74c-10.24,0 -18.57,-8.33 -18.57,-18.57s8.33,-18.57 18.57,-18.57s18.57,8.33 18.57,18.57s-8.33,18.57 -18.57,18.57zm-81.01,16.94c-24.98,0 -45.32,20.33 -45.32,45.31c0,24.99 20.34,45.33 45.32,45.33c24.99,0 45.32,-20.34 45.32,-45.33c0,-24.98 -20.33,-45.31 -45.32,-45.31z"/>
  <g id="svg_2"/>
  <g id="svg_3"/>
  <g id="svg_4"/>
  <g id="svg_5"/>
  <g id="svg_6"/>
  <g id="svg_7"/>
  <g id="svg_8"/>
  <g id="svg_9"/>
  <g id="svg_10"/>
  <g id="svg_11"/>
  <g id="svg_12"/>
  <g id="svg_13"/>
  <g id="svg_14"/>
  <g id="svg_15"/>
  <g id="svg_16"/>
 </g>
</svg>
