<svg width="455.731" height="455.731" xmlns="http://www.w3.org/2000/svg" xmlns:svg="http://www.w3.org/2000/svg">
 <g>
  <title>Layer 1</title>
  <rect id="svg_19" height="453.000014" width="454.000003" y="2.599989" x="0.999999" stroke-linecap="null" stroke-linejoin="null" stroke-dasharray="null" stroke-width="null" fill="#ffffff"/>
  <g id="svg_1">
   <rect id="svg_2" fill="#ff0000" height="455.731" width="455.731"/>
   <path id="svg_3" fill="#FFFFFF" d="m160.601,382c-74.378,-31.081 -122.794,-119.657 -92.003,-209.618c30.459,-88.991 128.991,-135.594 217.711,-102.648c88.972,33.04 132.978,131.213 98.486,219.22c-35.709,91.112 -131.442,123.348 -203.22,100.617c5.366,-13.253 11.472,-26.33 15.945,-39.943c4.492,-13.672 7.356,-27.878 10.725,-41.037c2.9,2.44 5.814,5.027 8.866,7.439c15.861,12.535 33.805,13.752 52.605,9.232c19.977,-4.803 35.764,-16.13 47.455,-32.78c19.773,-28.16 26.751,-60.019 21.972,-93.546c-4.942,-34.668 -25.469,-59.756 -57.65,-72.389c-48.487,-19.034 -94.453,-12.626 -134.269,22.259c-30.622,26.83 -40.916,72.314 -26.187,107.724c5.105,12.274 13.173,21.907 25.379,27.695c6.186,2.933 8.812,1.737 10.602,-4.724c0.133,-0.481 0.295,-0.955 0.471,-1.422c3.428,-9.04 2.628,-16.472 -3.473,-25.199c-11.118,-15.906 -9.135,-34.319 -3.771,-51.961c10.172,-33.455 40.062,-55.777 75.116,-56.101c9.39,-0.087 19.056,0.718 28.15,2.937c27.049,6.599 44.514,27.518 46.264,55.253c1.404,22.242 -2.072,43.849 -11.742,64.159c-4.788,10.055 -11.107,18.996 -20.512,25.325c-8.835,5.945 -18.496,8.341 -28.979,5.602c-14.443,-3.774 -22.642,-16.95 -18.989,-31.407c3.786,-14.985 8.685,-29.69 12.399,-44.69c1.57,-6.344 2.395,-13.234 1.751,-19.696c-1.757,-17.601 -18.387,-25.809 -33.933,-17.216c-10.889,6.019 -16.132,16.079 -18.564,27.719c-2.505,11.992 -1.292,23.811 2.61,35.439c0.784,2.337 0.9,5.224 0.347,7.634c-7.063,30.799 -14.617,61.49 -21.306,92.369c-1.952,9.011 -1.59,18.527 -2.239,27.815c-0.123,1.778 -0.017,3.574 -0.017,5.939z"/>
  </g>
  <g id="svg_4"/>
  <g id="svg_5"/>
  <g id="svg_6"/>
  <g id="svg_7"/>
  <g id="svg_8"/>
  <g id="svg_9"/>
  <g id="svg_10"/>
  <g id="svg_11"/>
  <g id="svg_12"/>
  <g id="svg_13"/>
  <g id="svg_14"/>
  <g id="svg_15"/>
  <g id="svg_16"/>
  <g id="svg_17"/>
  <g id="svg_18"/>
 </g>
</svg>
