<svg width="455.731" height="455.731" xmlns="http://www.w3.org/2000/svg" xmlns:svg="http://www.w3.org/2000/svg">
 <g>
  <title>Layer 1</title>
  <rect id="svg_19" height="452.999998" width="449.00002" y="1.59999" x="3.999988" stroke-linecap="null" stroke-linejoin="null" stroke-dasharray="null" stroke-width="null" fill="#ffffff"/>
  <g id="svg_1">
   <rect id="svg_2" fill="#ff0000" height="455.731" width="455.731" y="0" x="0"/>
   <path id="svg_3" fill="#FFFFFF" d="m60.377,337.822c30.33,19.236 66.308,30.368 104.875,30.368c108.349,0 196.18,-87.841 196.18,-196.18c0,-2.705 -0.057,-5.39 -0.161,-8.067c3.919,-3.084 28.157,-22.511 34.098,-35c0,0 -19.683,8.18 -38.947,10.107c-0.038,0 -0.085,0.009 -0.123,0.009c0,0 0.038,-0.019 0.104,-0.066c1.775,-1.186 26.591,-18.079 29.951,-38.207c0,0 -13.922,7.431 -33.415,13.932c-3.227,1.072 -6.605,2.126 -10.088,3.103c-12.565,-13.41 -30.425,-21.78 -50.25,-21.78c-38.027,0 -68.841,30.805 -68.841,68.803c0,5.362 0.617,10.581 1.784,15.592c-5.314,-0.218 -86.237,-4.755 -141.289,-71.423c0,0 -32.902,44.917 19.607,91.105c0,0 -15.962,-0.636 -29.733,-8.864c0,0 -5.058,54.416 54.407,68.329c0,0 -11.701,4.432 -30.368,1.272c0,0 10.439,43.968 63.271,48.077c0,0 -41.777,37.74 -101.081,28.885l0.019,0.005z"/>
  </g>
  <g id="svg_4"/>
  <g id="svg_5"/>
  <g id="svg_6"/>
  <g id="svg_7"/>
  <g id="svg_8"/>
  <g id="svg_9"/>
  <g id="svg_10"/>
  <g id="svg_11"/>
  <g id="svg_12"/>
  <g id="svg_13"/>
  <g id="svg_14"/>
  <g id="svg_15"/>
  <g id="svg_16"/>
  <g id="svg_17"/>
  <g id="svg_18"/>
 </g>
</svg>
