<svg width="455.731" height="455.731" xmlns="http://www.w3.org/2000/svg" xmlns:svg="http://www.w3.org/2000/svg">
 <g>
  <title>Layer 1</title>
  <g id="svg_1">
   <rect x="0" y="0" width="455.731" height="455.731" fill="#ff0000" id="svg_2"/>
   <g id="svg_3">
    <path d="m263.259,291.734c-0.01,-1.7 -0.51,-3.47 -1.14,-5.06c-0.84,-2.09 -2.64,-3.13 -4.9,-3.35c-2.65,-0.26 -4.77,0.81 -6.69,2.51c-0.77,0.67 -1.12,1.67 -1.12,1.67l0.04,53.97l0,1.33c0,0 0.46,0.62 0.53,0.7c1.56,1.69 3.38,3.03 5.71,3.51c3.84,0.79 6.55,-0.81 7.3,-4.37c0.19,-0.89 0.3,-1.81 0.3,-2.72c0.02,-16.07 0.05,-32.13 -0.03,-48.19zm0,0c-0.01,-1.7 -0.51,-3.47 -1.14,-5.06c-0.84,-2.09 -2.64,-3.13 -4.9,-3.35c-2.65,-0.26 -4.77,0.81 -6.69,2.51c-0.77,0.67 -1.12,1.67 -1.12,1.67l0.04,53.97l0,1.33c0,0 0.46,0.62 0.53,0.7c1.56,1.69 3.38,3.03 5.71,3.51c3.84,0.79 6.55,-0.81 7.3,-4.37c0.19,-0.89 0.3,-1.81 0.3,-2.72c0.02,-16.07 0.05,-32.13 -0.03,-48.19zm60.43,-81.39c-63.87,-1.37 -127.77,-1.37 -191.65,0c-22.16,0.47 -39.88,18.59 -39.88,40.76l0,99.76c0,22.18 17.72,40.3 39.88,40.77c63.88,1.37 127.78,1.37 191.65,0c22.17,-0.47 39.89,-18.59 39.89,-40.77l0,-99.76c0,-22.169 -17.72,-40.29 -39.89,-40.76zm-172.89,149.611l-18.42,0l0,-104.13l-19.07,0l0,-17.42l56.6,0l0,17.38l-19.11,0l0,104.17zm65.92,-43.221l0,43.23l-16.31,0l0,-9.88c-0.59,0.63 -0.92,0.97 -1.23,1.32c-3.51,3.96 -7.49,7.26 -12.57,9.01c-2.48,0.85 -5.03,1.14 -7.64,0.69c-3.56,-0.59 -5.95,-2.64 -7.39,-5.88c-1.34,-2.99 -1.68,-6.19 -1.69,-9.41c-0.04,-11.9 -0.02,-74.88 -0.02,-75.49l16.27,0c0.03,0.55 0.09,45.76 0.1,67.81c0,1.2 0.01,2.43 0.25,3.6c0.6,2.96 2.87,4.23 5.72,3.19c3.28,-1.2 5.78,-3.46 7.88,-6.17c0.31,-0.39 0.31,-1.09 0.31,-1.65l0,-66.88l16.32,-0.04c0,0.001 0,31.57 0,46.55zm62.05,34.59c-2.18,6.56 -6.98,9.9 -13.88,9.83c-5.61,-0.05 -10.16,-2.28 -13.91,-6.35c-0.42,-0.45 -1.58,-1.68 -1.58,-1.68l0,6.82l-16.34,0l0,-121.55l16.34,0c0,12.94 0,40.01 0,40.01s0.92,-1.84 1.76,-2.79c2.53,-2.83 5.61,-5.02 9.41,-5.98c6.27,-1.57 13.5,0.37 16.94,7.7c2.03,4.33 2.6,8.95 2.6,13.65c0.03,16.99 0.03,33.98 0.01,50.97c-0.01,3.18 -0.34,6.321 -1.35,9.37zm60.35,-3.419c-2.83,8.29 -8.68,12.89 -17.26,14.15c-5.32,0.78 -10.59,0.67 -15.58,-1.59c-6.83,-3.08 -10.7,-8.65 -12.36,-15.74c-0.77,-3.3 -1.15,-6.76 -1.19,-10.15c-0.13,-13.31 -0.07,-26.63 -0.04,-39.94c0.01,-6.96 1.67,-13.38 6.44,-18.71c5.44,-6.09 12.4,-8.36 20.35,-7.85c2.39,0.15 4.83,0.54 7.1,1.29c7.73,2.54 11.86,8.33 13.48,16.01c0.62,2.96 0.85,6.03 0.9,9.06c0.13,7.1 -0.05,22.75 -0.05,22.75l-31.29,0l0,22.43c0,4.03 3.26,7.29 7.29,7.29c4.02,0 7.28,-3.26 7.28,-7.29l0,-11.53l16.81,0c0,-0.001 0.25,13.61 -1.88,19.82zm-14.93,-57.22c0,-4.02 -3.26,-7.29 -7.28,-7.29c-4.03,0 -7.29,3.27 -7.29,7.29l0,12.59l14.57,0l0,-12.59zm-62.07,-4.01c-0.84,-2.09 -2.64,-3.13 -4.9,-3.35c-2.65,-0.26 -4.77,0.81 -6.69,2.51c-0.77,0.67 -1.12,1.67 -1.12,1.67l0.04,53.97l0,1.33c0,0 0.46,0.62 0.53,0.7c1.56,1.69 3.38,3.03 5.71,3.51c3.84,0.79 6.55,-0.81 7.3,-4.37c0.19,-0.89 0.3,-1.81 0.3,-2.72c0.02,-16.07 0.05,-32.13 -0.03,-48.19c-0.01,-1.701 -0.51,-3.471 -1.14,-5.06z" fill="#FFFFFF" id="svg_4"/>
    <path d="m303.887,94.99l-0.005,90.244l-16.722,0l0.02,-9.695c-1.849,1.821 -3.427,3.522 -5.161,5.05c-3.074,2.708 -6.556,4.727 -10.629,5.524c-6.253,1.223 -11.579,-0.754 -13.573,-7.23c-0.664,-2.157 -1.065,-4.482 -1.082,-6.734l0,-77.159l16.596,0l0,68.821c0,0.912 0.073,1.834 0.233,2.728c0.504,2.836 2.6,4.171 5.331,3.224c3.329,-1.152 5.869,-3.457 8.024,-6.173c0.306,-0.388 0.251,-1.112 0.251,-1.681l0,-66.919l16.717,0z" fill="#FFFFFF" id="svg_5"/>
    <path d="m165.578,110.672c-3.63,-15.301 -11.235,-47.602 -11.235,-47.602l-19.029,0c0,0 14.62,48.487 21.158,70.111c0.235,0.782 0.343,1.631 0.343,2.45l-0.007,49.584l17.547,0l-0.007,-49.584c0,-0.819 0.108,-1.668 0.343,-2.45c6.538,-21.624 21.158,-70.111 21.158,-70.111l-19.029,0c0,0 -7.606,32.301 -11.235,47.602l-0.007,0z" fill="#FFFFFF" id="svg_6"/>
    <path d="m218.752,92.731l0,0c-13.224,0 -23.944,10.72 -23.944,23.944l0,46.859c0,13.224 10.72,23.944 23.944,23.944l0,0c13.224,0 23.944,-10.72 23.944,-23.944l0,-46.859c0.001,-13.224 -10.72,-23.944 -23.944,-23.944zm6.91,71.749c0,3.81 -3.1,6.909 -6.909,6.909s-6.909,-3.099 -6.909,-6.909l0,-48.752c0,-3.81 3.1,-6.909 6.909,-6.909s6.909,3.1 6.909,6.909l0,48.752z" fill="#FFFFFF" id="svg_7"/>
   </g>
  </g>
  <g id="svg_8"/>
  <g id="svg_9"/>
  <g id="svg_10"/>
  <g id="svg_11"/>
  <g id="svg_12"/>
  <g id="svg_13"/>
  <g id="svg_14"/>
  <g id="svg_15"/>
  <g id="svg_16"/>
  <g id="svg_17"/>
  <g id="svg_18"/>
  <g id="svg_19"/>
  <g id="svg_20"/>
  <g id="svg_21"/>
  <g id="svg_22"/>
 </g>
</svg>
